PathFileType	4	(X/Y/Z)	RBDS09static.trc
DataRate	CameraRate	NumFrames	NumMarkers	Units	OrigDataRate	OrigDataStartFrame	OrigNumFrames
150.000000	150.000000	4	48	mm	150.000000	37	150
Frame#	Time	L.Ankle			L.Ankle.Medial			L.ASIS			L.GTR			L.Heel.Bottom			L.Heel.Lateral			L.Heel.Top			L.HF			L.Iliac.Crest			L.Knee			L.Knee.Medial			L.MT1			L.MT2			L.MT5			L.PSIS			L.Shank.Bottom.Lateral			L.Shank.Bottom.Medial			L.Shank.Top.Lateral			L.Shank.Top.Medial			L.Thigh.Bottom.Lateral			L.Thigh.Bottom.Medial			L.Thigh.Top.Lateral			L.Thigh.Top.Medial			L.TT			R.Ankle			R.Ankle.Medial			R.ASIS			R.GTR			R.Heel.Bottom			R.Heel.Lateral			R.Heel.Top			R.HF			R.Iliac.Crest			R.Knee			R.Knee.Medial			R.MT1			R.MT2			R.MT5			R.PSIS			R.Shank.Bottom.Lateral			R.Shank.Bottom.Medial			R.Shank.Top.Lateral			R.Shank.Top.Medial			R.Thigh.Bottom.Lateral			R.Thigh.Bottom.Medial			R.Thigh.Top.Lateral			R.Thigh.Top.Medial			R.TT			
		X1	Y1	Z1	X2	Y2	Z2	X3	Y3	Z3	X4	Y4	Z4	X5	Y5	Z5	X6	Y6	Z6	X7	Y7	Z7	X8	Y8	Z8	X9	Y9	Z9	X10	Y10	Z10	X11	Y11	Z11	X12	Y12	Z12	X13	Y13	Z13	X14	Y14	Z14	X15	Y15	Z15	X16	Y16	Z16	X17	Y17	Z17	X18	Y18	Z18	X19	Y19	Z19	X20	Y20	Z20	X21	Y21	Z21	X22	Y22	Z22	X23	Y23	Z23	X24	Y24	Z24	X25	Y25	Z25	X26	Y26	Z26	X27	Y27	Z27	X28	Y28	Z28	X29	Y29	Z29	X30	Y30	Z30	X31	Y31	Z31	X32	Y32	Z32	X33	Y33	Z33	X34	Y34	Z34	X35	Y35	Z35	X36	Y36	Z36	X37	Y37	Z37	X38	Y38	Z38	X39	Y39	Z39	X40	Y40	Z40	X41	Y41	Z41	X42	Y42	Z42	X43	Y43	Z43	X44	Y44	Z44	X45	Y45	Z45	X46	Y46	Z46	X47	Y47	Z47	X48	Y48	Z48	

38	0.2466666666666667	693.4354248046875	98.39840698242188	1047.57958984375	709.84423828125	109.5038223266602	1133.795043945313	823.341552734375	983.734375	1113.180786132813	747.128173828125	902.6998291015625	1069.411010742188	627.8203735351563	38.76384735107422	1081.572021484375	664.4147338867188	60.72422409057617	1044.099731445313	635.3060302734375	88.47818756103516	1084.065307617188	706.9288330078125	459.8732604980469	1051.520751953125	758.6257934570313	1047.343139648438	1080.70703125	707.9242553710938	523.4365844726563	1058.089111328125	700.5607299804688	507.4749450683594	1187.307983398438	837.26123046875	55.06911087036133	1136.162475585938	835.7822265625	70.01747894287109	1086.085205078125	810.8265991210938	51.41819763183594	1027.97412109375	664.3311767578125	1019.943908691406	1200.55712890625	683.3348388671875	193.4003753662109	1037.396728515625	644.110107421875	188.2193603515625	1073.211059570313	670.8512573242188	272.48095703125	1031.851684570313	631.6122436523438	267.9961853027344	1067.775634765625	685.2349853515625	642.1773681640625	1056.089233398438	638.2470092773438	644.1902465820313	1112.3505859375	690.228515625	752.9369506835938	1059.067504882813	649.6058349609375	754.0482788085938	1115.581909179688	757.2200317382813	440.4693298339844	1108.009521484375	698.3905639648438	99.53772735595703	1416.444091796875	714.2703857421875	115.5163726806641	1328.979370117188	830.0997314453125	980.173828125	1347.773193359375	760.7349853515625	898.6867065429688	1394.833618164063	630.53564453125	38.08078765869141	1376.587646484375	667.4049682617188	60.48951721191406	1418.100952148438	638.5869140625	86.52626800537109	1374.2822265625	721.5866088867188	456.7574462890625	1418.661010742188	775.9849243164063	1049.131225585938	1388.47998046875	725.9539184570313	524.005859375	1412.127685546875	699.8506469726563	503.6002807617188	1282.228515625	835.2590942382813	59.94307327270508	1326.84326171875	843.4830932617188	69.2003173828125	1372.662841796875	812.1044311523438	49.24111938476563	1436.729858398438	667.2025756835938	1014.849487304688	1276.472290039063	671.8394165039063	185.3204956054688	1417.5283203125	646.8096313476563	188.2973022460938	1372.206420898438	661.58447265625	269.2702026367188	1425.927856445313	635.9920654296875	267.9690856933594	1379.304809570313	725.1412353515625	603.3501586914063	1422.662353515625	662.4365234375	601.8812255859375	1384.34521484375	721.6127319335938	713.9285888671875	1420.833251953125	663.40234375	712.0399169921875	1382.972412109375	767.8810424804688	437.47021484375	1361.423217773438	
39	0.2533333333333334	693.4326171875	98.39189910888672	1047.5771484375	709.8397216796875	109.4988784790039	1133.782348632813	823.32763671875	983.7200927734375	1113.165893554688	747.1171264648438	902.6945190429688	1069.4072265625	627.8193969726563	38.75758361816406	1081.559448242188	664.3990478515625	60.71574020385742	1044.098388671875	635.30615234375	88.47279357910156	1084.0537109375	706.9321899414063	459.8628540039063	1051.518188476563	758.6165771484375	1047.32568359375	1080.701171875	707.9368896484375	523.4235229492188	1058.087890625	700.5626220703125	507.4691467285156	1187.306396484375	837.2650756835938	55.08292388916016	1136.154418945313	835.7771606445313	70.01296997070313	1086.068359375	810.8247680664063	51.41921615600586	1027.97802734375	664.3280639648438	1019.947509765625	1200.5556640625	683.3343505859375	193.4020385742188	1037.396484375	644.1062622070313	188.2200164794922	1073.207275390625	670.8497924804688	272.4732055664063	1031.848876953125	631.6102294921875	267.9926452636719	1067.764038085938	685.230224609375	642.1732788085938	1056.075439453125	638.2468872070313	644.181640625	1112.341674804688	690.2203369140625	752.9210205078125	1059.064208984375	649.5986938476563	754.0374755859375	1115.579223632813	757.233154296875	440.4648742675781	1108.00634765625	698.3790283203125	99.52097320556641	1416.439819335938	714.263427734375	115.5056991577148	1328.980224609375	830.0927124023438	980.1635131835938	1347.770874023438	760.7235717773438	898.6859741210938	1394.836791992188	630.51953125	38.07726287841797	1376.583862304688	667.4046630859375	60.47585296630859	1418.08544921875	638.5897216796875	86.51911163330078	1374.28076171875	721.5714111328125	456.7490844726563	1418.517333984375	775.96728515625	1049.123779296875	1388.4716796875	725.9644165039063	523.9776000976563	1412.131713867188	699.8404541015625	503.5888366699219	1282.218872070313	835.2552490234375	59.94216918945313	1326.832885742188	843.4789428710938	69.18802642822266	1372.652709960938	812.1080932617188	49.23380279541016	1436.717407226563	667.1932983398438	1014.84521484375	1276.470703125	671.8450927734375	185.3071136474609	1417.518920898438	646.8063354492188	188.2932281494141	1372.19970703125	661.5806274414063	269.2662963867188	1425.925415039063	635.9899291992188	267.9655456542969	1379.305908203125	725.1365966796875	603.3277587890625	1422.66162109375	662.4267578125	601.8742065429688	1384.33251953125	721.6093139648438	713.9229736328125	1420.844604492188	663.40380859375	712.0316772460938	1382.970947265625	767.8850708007813	437.4703674316406	1361.406982421875	
40	0.26	693.4481811523438	98.39595031738281	1047.57421875	709.8367919921875	109.5018997192383	1133.78466796875	823.319580078125	983.7206420898438	1113.17431640625	747.117919921875	902.69873046875	1069.41650390625	627.8252563476563	38.75448226928711	1081.567260742188	664.4173583984375	60.71346282958984	1044.096923828125	635.30517578125	88.46943664550781	1084.063232421875	706.9442138671875	459.8630676269531	1051.518920898438	758.599853515625	1047.305908203125	1080.691162109375	707.9346313476563	523.42529296875	1058.090087890625	700.5607299804688	507.4676513671875	1187.302124023438	837.27001953125	55.06843566894531	1136.157104492188	835.78759765625	70.014892578125	1086.081420898438	810.8267822265625	51.4242057800293	1027.971801757813	664.3154296875	1019.945068359375	1200.566040039063	683.3467407226563	193.3922119140625	1037.398193359375	644.1087036132813	188.2186737060547	1073.204711914063	670.8545532226563	272.4768981933594	1031.857299804688	631.6160278320313	267.988525390625	1067.767456054688	685.229736328125	642.1678466796875	1056.081787109375	638.2389526367188	644.17529296875	1112.347534179688	690.2028198242188	752.9317626953125	1059.071411132813	649.5906982421875	754.0349731445313	1115.576782226563	757.2261962890625	440.4727172851563	1108.010131835938	698.3967895507813	99.52593231201172	1416.44189453125	714.2805786132813	115.5051498413086	1328.988403320313	830.1006469726563	980.1650390625	1347.770751953125	760.722412109375	898.6773071289063	1394.838989257813	630.5228881835938	38.08214950561523	1376.578369140625	667.4027709960938	60.47812271118164	1418.085815429688	638.59423828125	86.51868438720703	1374.28369140625	721.59326171875	456.7554321289063	1418.666259765625	775.950927734375	1049.126953125	1388.48193359375	725.9600219726563	523.9707641601563	1412.143310546875	699.8366088867188	503.5841674804688	1282.236694335938	835.2692260742188	59.94596481323242	1326.837768554688	843.4883422851563	69.19313812255859	1372.655395507813	812.107177734375	49.24356079101563	1436.72216796875	667.1875610351563	1014.847351074219	1276.47119140625	671.8475341796875	185.3090057373047	1417.529663085938	646.8089599609375	188.2915344238281	1372.204956054688	661.5836791992188	269.2647705078125	1425.93505859375	635.9860229492188	267.9608764648438	1379.316772460938	725.1342163085938	603.335205078125	1422.670776367188	662.427978515625	601.8739624023438	1384.346801757813	721.6063842773438	713.92236328125	1420.840942382813	663.3974609375	712.0369262695313	1382.969360351563	767.8906860351563	437.4842834472656	1361.422729492188	
41	0.2666666666666667	693.4411010742188	98.39459228515625	1047.571166992188	709.842529296875	109.4949798583984	1133.780517578125	823.3001098632813	983.7098999023438	1113.175048828125	747.092529296875	902.7066650390625	1069.410888671875	627.8150024414063	38.76301956176758	1081.562744140625	664.4019775390625	60.71894836425781	1044.097045898438	635.2991333007813	88.474609375	1084.061157226563	706.935791015625	459.8681335449219	1051.513671875	758.5667724609375	1047.305786132813	1080.682983398438	707.932861328125	523.4259643554688	1058.090576171875	700.55615234375	507.4623107910156	1187.301025390625	837.2705078125	55.06878280639648	1136.156005859375	835.7852172851563	70.01300811767578	1086.075073242188	810.825439453125	51.41836166381836	1027.97998046875	664.30419921875	1019.93505859375	1200.567260742188	683.34130859375	193.3984222412109	1037.3984375	644.108642578125	188.2118530273438	1073.199951171875	670.8480834960938	272.4766540527344	1031.847412109375	631.6085815429688	267.9922180175781	1067.762573242188	685.2066650390625	642.1693725585938	1056.078735351563	638.2337646484375	644.1712036132813	1112.349243164063	690.1893920898438	752.9242553710938	1059.072265625	649.5670166015625	754.0361328125	1115.579467773438	757.2362670898438	440.4771728515625	1108.013916015625	698.3858032226563	99.52727508544922	1416.453125	714.2761840820313	115.5082702636719	1328.98583984375	830.0863037109375	980.1680297851563	1347.76953125	760.7238159179688	898.6773071289063	1394.836669921875	630.5258178710938	38.07446670532227	1376.572875976563	667.4020385742188	60.47576904296875	1418.08642578125	638.5900268554688	86.51651000976563	1374.281005859375	721.5820922851563	456.7510986328125	1418.670776367188	775.9461669921875	1049.120727539063	1388.473999023438	725.9607543945313	523.9596557617188	1412.146240234375	699.8273315429688	503.59033203125	1282.232055664063	835.2630004882813	59.94327926635742	1326.835815429688	843.4819946289063	69.19071960449219	1372.656860351563	812.1188354492188	49.23757553100586	1436.714965820313	667.1796875	1014.837951660156	1276.471801757813	671.8471069335938	185.3089294433594	1417.537109375	646.7969360351563	188.2984771728516	1372.203247070313	661.5819091796875	269.2579650878906	1425.9384765625	635.9935302734375	267.9648132324219	1379.321899414063	725.1302490234375	603.3272705078125	1422.677612304688	662.4231567382813	601.8773193359375	1384.347045898438	721.6041259765625	713.9166259765625	1420.848510742188	663.3961791992188	712.0360717773438	1382.978149414063	767.8863525390625	437.4841613769531	1361.417602539063	
